<?xml version="1.0" standalone="no"?>
<!DOCTYPE svg PUBLIC "-//W3C//DTD SVG 20010904//EN"
 "http://www.w3.org/TR/2001/REC-SVG-20010904/DTD/svg10.dtd">
<svg version="1.0" xmlns="http://www.w3.org/2000/svg"
 width="1024.000000pt" height="1024.000000pt" viewBox="0 0 1024.000000 1024.000000"
 preserveAspectRatio="xMidYMid meet">

<g transform="translate(0.000000,1024.000000) scale(0.100000,-0.100000)"
fill="#000000" stroke="none">
<path d="M0 5120 l0 -5120 5120 0 5120 0 0 5120 0 5120 -5120 0 -5120 0 0
-5120z m5503 2825 c245 -45 426 -105 622 -205 316 -161 590 -386 777 -637 107
-144 278 -443 278 -487 0 -15 -13 -16 -112 -14 l-111 3 -67 116 c-191 335
-470 602 -820 787 -228 120 -396 173 -691 216 -406 60 -891 -48 -1292 -288
-272 -163 -533 -443 -706 -759 l-43 -77 -46 0 c-51 0 -162 16 -170 25 -9 9 59
155 125 268 185 313 431 559 763 764 257 159 609 277 915 307 100 10 493 -3
578 -19z m234 -732 c118 -41 173 -69 250 -128 131 -98 232 -245 284 -415 21
-65 24 -96 23 -230 0 -142 -2 -161 -26 -228 -15 -40 -45 -104 -67 -142 -41
-68 -138 -178 -175 -197 -17 -9 -12 -17 51 -79 93 -92 163 -200 199 -310 28
-85 29 -97 29 -269 0 -178 0 -181 -34 -277 -88 -256 -305 -455 -561 -516 -81
-20 -119 -21 -837 -23 -414 -1 -755 -1 -757 2 -3 2 -7 643 -10 1424 l-5 1420
772 0 772 0 92 -32z m-2973 -593 c38 -18 106 -99 106 -125 0 -6 189 -10 525
-10 l525 0 0 -71 0 -72 -527 4 -526 4 -47 -49 c-55 -57 -118 -78 -188 -63 -58
14 -88 35 -123 90 -62 98 -18 236 93 291 54 26 110 27 162 1z m4905 9 c34 -7
61 -21 86 -46 48 -47 65 -88 65 -161 0 -105 -73 -183 -178 -190 -70 -4 -135
25 -169 76 l-22 34 -496 -2 -495 -1 0 75 0 74 483 -5 482 -5 13 36 c24 67 96
121 164 125 9 1 39 -4 67 -10z m-3749 -509 l0 -70 -451 0 c-291 0 -457 4 -470
10 -20 11 -26 60 -13 108 l6 22 464 0 464 0 0 -70z m3400 22 c0 -27 -7 -57
-16 -70 l-15 -22 -398 0 c-384 0 -491 4 -491 20 0 4 11 33 25 64 l25 56 435 0
435 0 0 -48z m-4620 -59 c48 -9 115 -78 131 -133 7 -25 15 -48 18 -52 3 -4
245 -8 536 -10 l530 -3 3 -74 3 -73 -428 7 c-235 3 -482 11 -548 16 l-120 9
-19 -25 c-52 -73 -190 -88 -263 -29 -127 103 -111 284 32 358 32 17 73 20 125
9z m5034 -26 c65 -37 99 -88 104 -156 6 -78 -10 -121 -62 -169 -59 -54 -133
-71 -206 -47 -27 9 -63 29 -81 45 l-31 30 -551 -9 c-304 -4 -557 -6 -564 -3
-17 5 -45 84 -41 113 3 21 9 24 43 25 22 0 277 2 567 2 l528 2 6 28 c10 39 39
94 60 114 59 53 160 64 228 25z m-4940 -521 c37 -22 49 -24 97 -17 30 4 64 13
76 19 16 9 147 12 487 12 l466 0 0 -68 0 -69 -137 -6 c-197 -10 -756 -8 -838
3 -79 10 -85 6 -85 -53 0 -62 -45 -133 -102 -163 -57 -30 -163 -11 -217 39
-32 30 -61 94 -61 137 0 41 29 108 56 132 10 9 39 28 64 43 38 22 54 25 98 21
31 -3 71 -15 96 -30z m4503 9 c45 -22 142 -19 194 5 68 31 154 27 210 -9 57
-35 86 -72 100 -125 25 -92 -15 -181 -99 -218 -77 -35 -110 -34 -172 4 -68 41
-97 83 -105 154 l-7 54 -217 3 c-119 1 -332 0 -473 -2 -249 -4 -258 -3 -258
15 0 11 -6 44 -14 74 -8 30 -13 57 -11 60 2 3 187 4 412 2 334 -2 414 -5 440
-17z m-3976 -342 c93 -236 256 -470 475 -683 203 -198 377 -312 617 -404 227
-88 391 -128 592 -147 642 -58 1295 243 1721 796 54 69 160 256 216 377 l53
118 103 0 c121 0 123 -2 99 -90 -47 -167 -182 -404 -353 -618 -337 -421 -864
-720 -1406 -797 -195 -28 -542 -13 -727 31 -596 142 -1059 461 -1398 964 -57
84 -243 449 -243 476 0 2 12 10 28 18 18 10 56 15 113 16 l87 0 23 -57z m-46
-1795 c7 -24 66 -165 171 -411 35 -81 64 -150 64 -152 0 -3 -28 -5 -62 -5
l-63 0 -20 53 -20 52 -100 3 c-129 4 -185 -4 -185 -26 -1 -9 -9 -33 -18 -52
-17 -34 -19 -35 -75 -35 -31 0 -57 2 -57 4 0 15 64 175 135 336 47 106 85 195
85 198 0 3 4 17 10 31 9 24 14 26 69 26 53 0 60 -2 66 -22z m1980 -56 c33 -42
92 -120 132 -173 40 -53 79 -101 86 -107 14 -12 15 0 4 270 l-4 76 56 4 c31 2
59 3 64 1 4 -3 7 -137 7 -299 l0 -294 -55 0 c-49 0 -56 3 -69 28 -8 15 -36 54
-63 87 -26 33 -80 107 -118 164 l-70 103 -5 -188 -5 -189 -57 -3 -57 -3 -3
293 c-2 161 -2 296 0 301 2 4 24 7 50 6 46 0 48 -1 107 -77z m1869 18 c13 -30
42 -98 64 -150 61 -141 131 -324 138 -360 l7 -31 -57 3 -57 3 -22 55 -22 55
-135 0 -135 0 -19 -57 -18 -58 -60 0 c-47 0 -59 3 -55 14 3 7 14 42 25 77 22
71 110 285 152 369 15 30 31 71 35 90 4 19 9 37 10 40 2 3 31 5 65 5 l61 -1
23 -54z m654 -51 c125 -297 195 -470 190 -474 -2 -2 -30 -5 -63 -6 l-59 -3
-21 55 -21 54 -84 3 c-47 2 -108 0 -137 -3 -45 -5 -52 -9 -57 -33 -4 -15 -12
-40 -18 -55 -10 -27 -13 -28 -69 -25 -33 1 -59 5 -59 7 0 11 95 252 115 291
28 56 91 215 101 256 4 16 8 31 9 34 2 3 31 5 66 4 l63 0 44 -105z m-5051 80
c107 -52 134 -174 52 -243 -32 -27 -36 -36 -15 -36 26 0 74 -56 81 -93 10 -50
1 -80 -35 -121 -48 -55 -98 -66 -287 -66 l-163 0 -1 158 c-1 86 -2 217 -3 289
l-1 133 164 0 c147 0 169 -2 208 -21z m1209 2 c109 -49 168 -145 168 -271 0
-90 -24 -152 -81 -206 -69 -65 -109 -77 -275 -82 l-148 -4 0 291 0 291 148 0
c122 0 154 -4 188 -19z m625 7 c87 -29 149 -104 149 -180 0 -67 -19 -107 -75
-156 l-48 -42 25 -37 c14 -21 44 -60 67 -88 22 -27 41 -54 41 -60 0 -5 -31
-11 -69 -13 l-69 -3 -30 53 c-16 29 -44 72 -61 96 -31 42 -32 43 -84 39 l-52
-4 -3 -92 -3 -91 -59 0 -60 0 0 295 0 295 149 0 c85 0 162 -5 182 -12z m1621
-40 c-2 -29 -6 -54 -7 -56 -1 -1 -72 -3 -158 -5 l-157 -2 0 -64 0 -64 139 6
139 6 4 -47 c7 -70 -2 -74 -152 -70 l-125 2 -3 -60 -3 -60 158 0 158 -1 3 -57
3 -56 -99 0 c-54 0 -153 -3 -220 -7 l-122 -6 3 296 2 297 221 0 221 0 -5 -52z
m473 -171 c0 -245 -1 -251 -67 -314 -55 -53 -117 -66 -202 -42 -40 11 -146
101 -146 124 0 11 71 65 85 65 4 0 21 -16 39 -35 29 -31 39 -35 83 -35 86 0
87 5 91 251 l3 209 57 0 57 0 0 -223z m-2479 -539 c3 -13 18 -48 32 -78 l26
-55 21 70 c19 64 23 70 49 73 28 3 29 2 23 -32 -12 -74 -70 -246 -83 -246 -17
0 -36 31 -59 93 -10 26 -21 47 -24 47 -4 0 -17 -27 -30 -60 -28 -69 -48 -92
-61 -69 -20 32 -92 248 -85 258 3 6 15 11 25 11 16 0 24 -15 41 -75 12 -41 25
-75 29 -75 8 0 43 70 61 123 15 42 25 47 35 15z m-1111 -5 c39 -19 45 -37 15
-53 -14 -8 -26 -8 -41 0 -11 7 -32 9 -46 5 -39 -9 -24 -37 32 -58 51 -18 85
-48 85 -74 0 -26 -65 -83 -95 -83 -40 0 -97 30 -93 49 2 10 12 15 23 13 83
-14 83 -14 94 6 13 24 8 29 -53 52 -21 8 -48 27 -59 42 -19 26 -19 28 -3 53
18 27 72 65 93 65 7 0 28 -8 48 -17z m611 -38 c-3 -9 -25 -15 -58 -17 -46 -3
-53 -6 -56 -25 -3 -21 0 -23 47 -23 41 0 51 -4 56 -20 11 -34 -3 -42 -56 -35
l-49 7 0 -56 c0 -49 -2 -56 -20 -56 -19 0 -20 7 -20 135 l0 134 78 3 c68 3 77
1 80 -15 2 -10 1 -25 -2 -32z m862 -60 c62 -128 69 -160 33 -160 -19 0 -27 7
-33 32 -8 32 -8 32 -61 26 -59 -6 -67 -11 -70 -42 -1 -15 -8 -21 -24 -21 -32
0 -30 20 16 131 55 133 63 150 75 146 6 -1 35 -52 64 -112z m1121 93 c11 -13
39 -48 63 -78 l43 -55 7 74 c4 41 10 76 12 78 3 3 14 2 25 -2 20 -6 21 -14 21
-136 0 -121 -1 -129 -20 -129 -12 0 -40 28 -80 80 -33 44 -63 80 -65 80 -2 0
-1 -24 2 -54 8 -76 -1 -106 -32 -106 l-25 0 0 104 c0 111 7 166 21 166 5 0 18
-10 28 -22z m792 -51 c28 -34 54 -67 56 -74 3 -7 9 -13 14 -13 5 0 6 34 2 75
-5 65 -4 75 11 81 31 12 38 -12 44 -145 5 -126 4 -131 -15 -131 -13 0 -40 26
-78 75 -31 41 -61 75 -66 75 -5 0 -9 -34 -9 -76 0 -66 -2 -75 -17 -72 -16 3
-18 19 -21 140 -3 161 -2 162 79 65z m389 44 c0 -32 -17 -41 -82 -41 -34 0
-38 -3 -38 -25 0 -23 3 -25 51 -25 47 0 50 -2 47 -22 -3 -20 -10 -23 -50 -26
-43 -3 -48 -6 -48 -27 0 -21 5 -24 65 -30 69 -8 79 -13 69 -39 -5 -13 -23 -16
-100 -16 l-94 0 0 135 0 134 83 4 c45 1 85 4 90 5 4 1 7 -11 7 -27z m260 -3
c0 -24 -4 -28 -27 -28 -16 0 -45 -3 -65 -6 -33 -6 -38 -10 -38 -35 l0 -28 56
6 c54 6 56 5 52 -18 -3 -21 -10 -25 -53 -29 -42 -4 -50 -8 -53 -27 -3 -22 0
-23 62 -23 50 0 66 -3 66 -14 0 -8 3 -21 6 -30 5 -14 -6 -16 -90 -14 l-96 2 0
136 0 135 90 0 90 0 0 -27z m-3725 2 c35 -21 65 -73 65 -110 0 -63 -74 -140
-135 -140 -73 0 -135 66 -135 144 0 32 7 46 44 82 38 38 49 44 86 44 25 0 56
-8 75 -20z m564 -2 c12 -32 6 -38 -40 -38 l-39 0 0 -100 c0 -83 -3 -102 -16
-107 -28 -11 -35 18 -29 115 l6 92 -40 0 c-36 0 -41 3 -41 23 0 13 3 27 7 30
3 4 46 7 95 7 83 0 89 -1 97 -22z m917 -11 c16 -19 24 -41 24 -65 0 -31 -5
-41 -30 -56 l-31 -18 35 -43 c37 -45 37 -55 0 -55 -16 0 -31 14 -53 50 -27 45
-34 49 -51 40 -15 -8 -20 -21 -20 -50 0 -40 -5 -45 -34 -34 -13 5 -16 26 -16
128 0 68 3 126 8 130 4 4 38 6 76 4 60 -3 71 -7 92 -31z m284 7 c0 -24 -15
-29 -95 -36 -19 -2 -31 -9 -33 -20 -3 -15 5 -18 52 -18 56 0 56 0 56 -30 0
-29 -1 -30 -50 -30 -49 0 -50 -1 -50 -30 l0 -30 58 2 c56 3 57 2 60 -24 l3
-28 -90 0 -91 0 0 135 0 135 90 -1 c87 -2 90 -3 90 -25z m390 -4 l0 -30 -65 0
c-58 0 -65 -2 -65 -20 0 -18 7 -20 55 -20 54 0 55 0 55 -30 0 -30 -1 -30 -55
-30 -52 0 -55 -1 -55 -25 0 -24 2 -25 65 -25 l65 0 0 -30 0 -30 -90 0 -90 0 0
133 0 132 90 3 90 2 0 -30z m549 16 c15 -8 33 -22 40 -30 19 -23 -10 -32 -49
-16 -43 18 -78 5 -97 -34 -19 -41 -13 -71 22 -108 42 -45 85 -29 85 32 0 19
-4 21 -26 16 -22 -6 -25 -4 -22 16 3 21 8 23 48 20 25 -2 47 -5 48 -7 2 -2 6
-21 9 -44 5 -34 2 -43 -22 -65 -83 -77 -205 -14 -205 104 0 52 18 83 64 111
37 23 67 24 105 5z m191 -121 c0 -125 -1 -135 -19 -135 -24 0 -31 35 -31 166
l0 104 25 0 25 0 0 -135z m1080 120 c35 -18 60 -52 60 -80 0 -12 -13 -34 -30
-50 -16 -16 -30 -32 -30 -37 0 -4 13 -23 30 -41 16 -19 27 -37 23 -41 -17 -17
-53 -2 -93 39 -24 25 -50 45 -57 45 -7 0 -13 -17 -15 -42 -2 -36 -7 -44 -25
-46 -22 -3 -23 -1 -23 86 0 49 -3 110 -6 136 l-7 46 72 0 c44 0 83 -6 101 -15z
m469 -119 c7 -8 11 -25 9 -38 -3 -20 -10 -23 -48 -26 -52 -4 -142 8 -120 16 8
3 18 10 22 16 5 8 8 7 8 -1 0 -7 5 -13 10 -13 7 0 7 7 0 20 -16 29 -8 35 52
38 39 2 58 -1 67 -12z"/>
<path d="M4564 6751 c-2 -2 -4 -425 -4 -940 l0 -936 478 0 c339 1 489 4 517
13 100 29 217 143 250 242 47 142 -4 313 -115 386 -76 50 -112 54 -557 54
-226 0 -413 3 -415 8 -2 4 -2 114 0 245 l4 238 413 -2 c414 -1 414 -1 462 22
26 13 69 44 95 70 63 63 103 180 95 281 -14 173 -135 291 -328 318 -69 10
-885 11 -895 1z"/>
<path d="M2614 6486 c-42 -42 -43 -66 -3 -105 36 -37 83 -41 122 -11 51 40 42
111 -18 135 -50 21 -63 19 -101 -19z"/>
<path d="M7556 6479 c-14 -17 -26 -40 -26 -51 0 -31 53 -78 90 -78 39 0 90 47
90 83 0 13 -9 36 -21 51 -16 21 -29 26 -64 26 -36 0 -48 -5 -69 -31z"/>
<path d="M2612 5954 c-24 -17 -52 -64 -52 -88 0 -22 67 -86 90 -86 11 0 35 14
55 31 46 41 48 87 6 130 -33 32 -65 37 -99 13z"/>
<path d="M7579 5941 c-38 -38 -40 -91 -4 -126 54 -54 145 -16 145 60 0 49 -13
71 -51 84 -47 16 -58 14 -90 -18z"/>
<path d="M2638 5448 c-35 -12 -62 -67 -49 -101 20 -52 76 -70 130 -42 92 47
18 179 -81 143z"/>
<path d="M7541 5429 c-25 -27 -26 -38 -6 -84 14 -34 46 -55 85 -55 24 0 80 56
80 80 0 63 -115 106 -159 59z"/>
<path d="M3200 3262 c0 -12 -21 -61 -46 -108 -26 -47 -45 -87 -43 -89 9 -8
191 -17 188 -9 -2 5 -22 54 -43 109 -42 108 -56 132 -56 97z"/>
<path d="M7030 3242 c0 -11 -9 -31 -20 -45 -12 -14 -29 -51 -40 -82 l-19 -55
90 0 c49 0 89 3 89 8 -1 4 -17 47 -38 96 -36 86 -62 119 -62 78z"/>
<path d="M7660 3246 c0 -14 -4 -27 -9 -31 -10 -6 -43 -90 -55 -137 l-6 -28 89
0 89 0 -44 107 c-24 60 -44 109 -44 110 0 2 -4 3 -10 3 -5 0 -10 -11 -10 -24z"/>
<path d="M2473 3274 c4 -21 7 -51 7 -66 l0 -28 100 0 c88 0 100 2 110 19 14
27 13 76 -2 89 -7 6 -60 13 -117 17 l-104 8 6 -39z"/>
<path d="M2478 3009 l4 -61 103 4 c84 3 107 7 124 22 26 24 27 50 1 76 -18 18
-33 20 -127 20 l-108 0 3 -61z"/>
<path d="M3714 3284 c3 -9 6 -85 6 -170 l0 -154 68 1 c90 1 130 17 170 68 27
37 32 51 32 99 0 111 -75 172 -209 172 -63 0 -72 -2 -67 -16z"/>
<path d="M4350 3213 l0 -88 92 3 c104 4 132 19 144 78 5 24 0 36 -24 62 -30
31 -32 32 -121 32 l-91 0 0 -87z"/>
<path d="M4460 2563 c0 -10 -3 -28 -6 -40 -6 -20 -3 -23 25 -23 35 0 38 8 16
50 -17 33 -35 39 -35 13z"/>
<path d="M3247 2583 c-30 -34 -31 -67 -2 -101 40 -47 61 -50 101 -11 40 38 45
78 14 109 -26 26 -90 27 -113 3z"/>
<path d="M4743 2600 c-34 -14 -32 -67 2 -76 57 -14 103 56 49 76 -14 6 -26 10
-27 9 -1 0 -12 -4 -24 -9z"/>
<path d="M7237 2593 c-4 -3 -7 -17 -7 -29 0 -51 102 -42 108 9 3 26 2 27 -46
27 -27 0 -52 -3 -55 -7z"/>
</g>
</svg>
